<?xml version="1.0" encoding="utf-8"?>
<!-- Generator: Adobe Illustrator 22.1.0, SVG Export Plug-In . SVG Version: 6.00 Build 0)  -->
<svg version="1.1" id="Layer_1" width="44" xmlns="http://www.w3.org/2000/svg" xmlns:xlink="http://www.w3.org/1999/xlink" x="0px" y="0px"
	 viewBox="0 0 859 850.4" style="enable-background:new 0 0 859 850.4;" xml:space="preserve">
<style type="text/css">
	.st0{fill:#6DB78B;}
	.st1{fill:#FFFFFF;}
</style>
<g>
	<path class="st0" d="M600.3,639c0-33.3,26.5-59.8,59.8-59.8c33.3,0,59.8,26.5,59.8,59.8c0,33.3-26.5,59.8-59.8,59.8
		C626.8,698.8,600.3,672.3,600.3,639z"/>
	<path class="st1" d="M153.1,151.6h90.1v215.7h1.5c24.2-37.8,68.9-62.1,124.9-62.1c89.3,0,184.7,64.3,184.7,196.8
		c0,113.5-83.2,196.8-201.3,196.8S153.1,620.1,153.1,499V151.6z M463.4,502c0-65.8-44.7-112.8-110.5-112.8
		c-65.8,0-109.7,46.9-109.7,112.8c0,65.8,43.9,112.8,109.7,112.8C418.8,614.8,463.4,567.9,463.4,502z"/>
</g>
</svg>
