<svg xmlns="http://www.w3.org/2000/svg" xmlns:xlink="http://www.w3.org/1999/xlink" width="54" height="54" viewBox="0 0 54 54"><defs><clipPath id="a"><path d="M322.776-348.25a16.03,16.03,0,0,0-16.026,16.026A16.03,16.03,0,0,0,322.776-316.2,16.041,16.041,0,0,0,338.8-332.224,16.041,16.041,0,0,0,322.776-348.25Zm10.585,7.387a13.626,13.626,0,0,1,3.094,8.517,32.323,32.323,0,0,0-9.525-.435c-.1-.226-.191-.469-.3-.713-.278-.66-.591-1.338-.9-1.981A18.321,18.321,0,0,0,333.361-340.863Zm-10.585-5.023a13.658,13.658,0,0,1,9.073,3.441c-.243.348-2.312,3.111-7.178,4.936a73.919,73.919,0,0,0-5.11-8.013A13.919,13.919,0,0,1,322.776-345.886Zm-5.823,1.286a86.371,86.371,0,0,1,5.075,7.908,51.332,51.332,0,0,1-12.654,1.669A13.752,13.752,0,0,1,316.953-344.6Zm-7.874,12.393v-.417a50.013,50.013,0,0,0,14.062-1.947c.4.765.765,1.547,1.112,2.329-.174.052-.365.1-.539.156-7.057,2.277-10.811,8.5-11.124,9.021A13.657,13.657,0,0,1,309.079-332.207Zm13.7,13.679a13.592,13.592,0,0,1-8.4-2.885c.243-.5,3.024-5.857,10.742-8.552.035-.017.052-.017.087-.035a56.6,56.6,0,0,1,2.92,10.377A13.464,13.464,0,0,1,322.776-318.528Zm7.63-2.346a58.885,58.885,0,0,0-2.659-9.751,19.989,19.989,0,0,1,8.517.591A13.571,13.571,0,0,1,330.406-320.874Z" transform="translate(-306.75 348.25)" fill="#d82e69"/></clipPath><clipPath id="b"><path d="M304-312.538h38.462V-351H304Z" transform="translate(-304 351)" fill="#d82e69"/></clipPath></defs><g transform="translate(-24 -192)"><rect width="54" height="54" rx="10" transform="translate(24 192)" fill="#242631"/><g transform="translate(34.724 203.474)" clip-path="url(#a)"><g transform="translate(-3.205 -3.205)" clip-path="url(#b)"><path d="M301.75-353.25h43.706v43.706H301.75Z" transform="translate(-304.372 350.628)" fill="#d82e69"/></g></g></g></svg>