<svg width="16" height="16" viewBox="0 0 16 16" fill="none" xmlns="http://www.w3.org/2000/svg">
<mask id="path-1-inside-1" fill="white">
<path d="M8 16C10.1172 15.9858 12.1437 15.1385 13.641 13.6414C15.1382 12.1442 15.9857 10.1177 16 8.00036C15.9826 5.88253 15.1331 3.85648 13.6348 2.35964C12.1365 0.862806 10.1097 0.0152647 7.99197 0C5.8763 0.0172012 3.85228 0.86587 2.35697 2.36274C0.861672 3.85962 0.0150754 5.88458 0 8.00036C0.0156695 10.1173 0.863578 12.143 2.36051 13.6399C3.85743 15.1368 5.88318 15.9845 8 16ZM8 14.6675C7.12399 14.6706 6.25602 14.5003 5.44617 14.1663C4.63633 13.8323 3.90065 13.3412 3.28159 12.7213C2.66252 12.1015 2.17233 11.3652 1.8393 10.5549C1.50627 9.74463 1.337 8.87641 1.34124 8.00036C1.33671 7.12491 1.50552 6.25723 1.83795 5.44734C2.17038 4.63746 2.65984 3.90139 3.27811 3.2816C3.89638 2.66181 4.63122 2.17055 5.44027 1.83616C6.24931 1.50176 7.11655 1.33085 7.99197 1.33327C8.86846 1.33106 9.73677 1.50194 10.5471 1.83611C11.3574 2.17028 12.0937 2.66116 12.7139 3.2806C13.334 3.90003 13.8258 4.63582 14.1609 5.44576C14.496 6.25569 14.6679 7.12383 14.6668 8.00036C14.6708 8.87704 14.5012 9.74582 14.1676 10.5565C13.834 11.3673 13.3431 12.1039 12.7232 12.7238C12.1033 13.3437 11.3668 13.8346 10.5561 14.1682C9.74538 14.5018 8.87663 14.6715 8 14.6675ZM7.92699 5.20823C8.06157 5.2095 8.19506 5.18392 8.31965 5.133C8.44424 5.08208 8.55743 5.00683 8.6526 4.91165C8.74777 4.81648 8.82302 4.70329 8.87394 4.57869C8.92486 4.4541 8.95043 4.3206 8.94917 4.18601C8.95062 4.05123 8.9252 3.9175 8.87439 3.79266C8.82357 3.66781 8.74838 3.55435 8.65321 3.4589C8.55804 3.36346 8.4448 3.28794 8.3201 3.23677C8.19541 3.18559 8.06177 3.15979 7.92699 3.16086C7.79232 3.16086 7.65898 3.18747 7.53463 3.23916C7.41028 3.29085 7.29737 3.36661 7.20238 3.46207C7.1074 3.55753 7.03221 3.67083 6.98115 3.79544C6.93008 3.92005 6.90414 4.05353 6.90481 4.1882C6.90452 4.32242 6.93078 4.45537 6.98207 4.5794C7.03336 4.70343 7.10868 4.81609 7.20369 4.91089C7.29869 5.0057 7.41151 5.08078 7.53564 5.13181C7.65978 5.18284 7.79278 5.20881 7.92699 5.20823ZM6.62736 12.3142H9.81948C9.8936 12.3176 9.96765 12.306 10.0371 12.2799C10.1066 12.2538 10.17 12.2139 10.2236 12.1625C10.2771 12.1112 10.3197 12.0494 10.3486 11.9811C10.3775 11.9128 10.3923 11.8393 10.3919 11.7651C10.391 11.6912 10.3753 11.6184 10.3459 11.5506C10.3166 11.4829 10.274 11.4217 10.2207 11.3706C10.1674 11.3195 10.1045 11.2795 10.0356 11.253C9.96675 11.2264 9.89327 11.2139 9.81948 11.216H8.84695V7.2242C8.84695 6.80071 8.63521 6.51814 8.2351 6.51814H6.75878C6.68499 6.516 6.61151 6.52857 6.54263 6.55512C6.47374 6.58166 6.41083 6.62165 6.35755 6.67276C6.30428 6.72386 6.2617 6.78506 6.23231 6.85278C6.20292 6.9205 6.1873 6.9934 6.18636 7.06722C6.18599 7.14142 6.20071 7.21493 6.22965 7.28326C6.25858 7.35159 6.30112 7.41332 6.35467 7.46469C6.40822 7.51606 6.47166 7.55599 6.54114 7.58205C6.61061 7.60812 6.68466 7.61977 6.75878 7.6163H7.59989V11.2167H6.62736C6.55357 11.2146 6.48009 11.2272 6.41121 11.2537C6.34232 11.2802 6.27941 11.3202 6.22613 11.3713C6.17285 11.4224 6.13028 11.4836 6.10089 11.5514C6.0715 11.6191 6.05588 11.692 6.05494 11.7658C6.05466 11.8399 6.06946 11.9134 6.09844 11.9816C6.12742 12.0499 6.16997 12.1115 6.22351 12.1628C6.27705 12.2141 6.34046 12.2539 6.40989 12.28C6.47931 12.306 6.5533 12.3176 6.62736 12.3142Z"/>
</mask>
<path d="M8 16C10.1172 15.9858 12.1437 15.1385 13.641 13.6414C15.1382 12.1442 15.9857 10.1177 16 8.00036C15.9826 5.88253 15.1331 3.85648 13.6348 2.35964C12.1365 0.862806 10.1097 0.0152647 7.99197 0C5.8763 0.0172012 3.85228 0.86587 2.35697 2.36274C0.861672 3.85962 0.0150754 5.88458 0 8.00036C0.0156695 10.1173 0.863578 12.143 2.36051 13.6399C3.85743 15.1368 5.88318 15.9845 8 16ZM8 14.6675C7.12399 14.6706 6.25602 14.5003 5.44617 14.1663C4.63633 13.8323 3.90065 13.3412 3.28159 12.7213C2.66252 12.1015 2.17233 11.3652 1.8393 10.5549C1.50627 9.74463 1.337 8.87641 1.34124 8.00036C1.33671 7.12491 1.50552 6.25723 1.83795 5.44734C2.17038 4.63746 2.65984 3.90139 3.27811 3.2816C3.89638 2.66181 4.63122 2.17055 5.44027 1.83616C6.24931 1.50176 7.11655 1.33085 7.99197 1.33327C8.86846 1.33106 9.73677 1.50194 10.5471 1.83611C11.3574 2.17028 12.0937 2.66116 12.7139 3.2806C13.334 3.90003 13.8258 4.63582 14.1609 5.44576C14.496 6.25569 14.6679 7.12383 14.6668 8.00036C14.6708 8.87704 14.5012 9.74582 14.1676 10.5565C13.834 11.3673 13.3431 12.1039 12.7232 12.7238C12.1033 13.3437 11.3668 13.8346 10.5561 14.1682C9.74538 14.5018 8.87663 14.6715 8 14.6675ZM7.92699 5.20823C8.06157 5.2095 8.19506 5.18392 8.31965 5.133C8.44424 5.08208 8.55743 5.00683 8.6526 4.91165C8.74777 4.81648 8.82302 4.70329 8.87394 4.57869C8.92486 4.4541 8.95043 4.3206 8.94917 4.18601C8.95062 4.05123 8.9252 3.9175 8.87439 3.79266C8.82357 3.66781 8.74838 3.55435 8.65321 3.4589C8.55804 3.36346 8.4448 3.28794 8.3201 3.23677C8.19541 3.18559 8.06177 3.15979 7.92699 3.16086C7.79232 3.16086 7.65898 3.18747 7.53463 3.23916C7.41028 3.29085 7.29737 3.36661 7.20238 3.46207C7.1074 3.55753 7.03221 3.67083 6.98115 3.79544C6.93008 3.92005 6.90414 4.05353 6.90481 4.1882C6.90452 4.32242 6.93078 4.45537 6.98207 4.5794C7.03336 4.70343 7.10868 4.81609 7.20369 4.91089C7.29869 5.0057 7.41151 5.08078 7.53564 5.13181C7.65978 5.18284 7.79278 5.20881 7.92699 5.20823ZM6.62736 12.3142H9.81948C9.8936 12.3176 9.96765 12.306 10.0371 12.2799C10.1066 12.2538 10.17 12.2139 10.2236 12.1625C10.2771 12.1112 10.3197 12.0494 10.3486 11.9811C10.3775 11.9128 10.3923 11.8393 10.3919 11.7651C10.391 11.6912 10.3753 11.6184 10.3459 11.5506C10.3166 11.4829 10.274 11.4217 10.2207 11.3706C10.1674 11.3195 10.1045 11.2795 10.0356 11.253C9.96675 11.2264 9.89327 11.2139 9.81948 11.216H8.84695V7.2242C8.84695 6.80071 8.63521 6.51814 8.2351 6.51814H6.75878C6.68499 6.516 6.61151 6.52857 6.54263 6.55512C6.47374 6.58166 6.41083 6.62165 6.35755 6.67276C6.30428 6.72386 6.2617 6.78506 6.23231 6.85278C6.20292 6.9205 6.1873 6.9934 6.18636 7.06722C6.18599 7.14142 6.20071 7.21493 6.22965 7.28326C6.25858 7.35159 6.30112 7.41332 6.35467 7.46469C6.40822 7.51606 6.47166 7.55599 6.54114 7.58205C6.61061 7.60812 6.68466 7.61977 6.75878 7.6163H7.59989V11.2167H6.62736C6.55357 11.2146 6.48009 11.2272 6.41121 11.2537C6.34232 11.2802 6.27941 11.3202 6.22613 11.3713C6.17285 11.4224 6.13028 11.4836 6.10089 11.5514C6.0715 11.6191 6.05588 11.692 6.05494 11.7658C6.05466 11.8399 6.06946 11.9134 6.09844 11.9816C6.12742 12.0499 6.16997 12.1115 6.22351 12.1628C6.27705 12.2141 6.34046 12.2539 6.40989 12.28C6.47931 12.306 6.5533 12.3176 6.62736 12.3142Z" fill="#8A88A2"/>
<path d="M8 16L7.99164 17.1428L7.99964 17.1429L8.00764 17.1428L8 16ZM16 8.00036L17.1428 8.00811L17.1429 7.99955L17.1428 7.99098L16 8.00036ZM7.99197 0L8.00021 -1.14283L7.99144 -1.14289L7.98268 -1.14282L7.99197 0ZM0 8.00036L-1.14283 7.99222L-1.14289 8.00052L-1.14283 8.00882L0 8.00036ZM8 14.6675L8.00529 13.5246L7.99584 13.5246L8 14.6675ZM1.34124 8.00036L2.48414 8.00591L2.48408 7.99445L1.34124 8.00036ZM7.99197 1.33327L7.98881 2.47614L7.99485 2.47613L7.99197 1.33327ZM14.6668 8.00036L13.5239 7.99886L13.5239 8.00566L14.6668 8.00036ZM7.92699 5.20823L7.93775 4.06543L7.92991 4.06535L7.92206 4.06539L7.92699 5.20823ZM8.94917 4.18601L7.80638 4.17363L7.80625 4.1852L7.80636 4.19677L8.94917 4.18601ZM7.92699 3.16086L7.92697 4.30376L7.93611 4.30368L7.92699 3.16086ZM6.90481 4.1882L8.04769 4.19067L8.04765 4.18248L6.90481 4.1882ZM6.62736 12.3142V11.1713H6.60064L6.57395 11.1725L6.62736 12.3142ZM9.81948 12.3142L9.8729 11.1725L9.8462 11.1713H9.81948V12.3142ZM10.3919 11.7651L11.5348 11.7592L11.5347 11.7506L10.3919 11.7651ZM9.81948 11.216V12.3588H9.83602L9.85257 12.3584L9.81948 11.216ZM8.84695 11.216H7.70409V12.3588H8.84695V11.216ZM6.75878 6.51814L6.7257 7.66052L6.74224 7.661H6.75878V6.51814ZM6.18636 7.06722L5.04357 7.0527L5.04352 7.06139L6.18636 7.06722ZM6.75878 7.6163V6.47344H6.73206L6.70536 6.47469L6.75878 7.6163ZM7.59989 7.6163H8.74275V6.47344H7.59989V7.6163ZM7.59989 11.2167V12.3596H8.74275V11.2167H7.59989ZM6.62736 11.2167L6.59427 12.3591L6.61081 12.3596H6.62736V11.2167ZM6.05494 11.7658L4.91213 11.7513L4.91209 11.7615L6.05494 11.7658ZM8.00764 17.1428C10.4253 17.1267 12.7394 16.1591 14.4491 14.4495L12.8328 12.8332C11.5481 14.1179 9.80914 14.845 7.99236 14.8572L8.00764 17.1428ZM14.4491 14.4495C16.1587 12.7399 17.1264 10.4259 17.1428 8.00811L14.8572 7.99262C14.8449 9.80953 14.1176 11.5485 12.8328 12.8332L14.4491 14.4495ZM17.1428 7.99098C17.123 5.57312 16.1531 3.26004 14.4425 1.55113L12.8271 3.16815C14.1131 4.45292 14.8423 6.19194 14.8572 8.00975L17.1428 7.99098ZM14.4425 1.55113C12.732 -0.157771 10.418 -1.1254 8.00021 -1.14283L7.98373 1.14283C9.80143 1.15593 11.5411 1.88338 12.8271 3.16815L14.4425 1.55113ZM7.98268 -1.14282C5.56692 -1.12318 3.25581 -0.154132 1.54843 1.55505L3.16552 3.17044C4.44874 1.88587 6.18568 1.15758 8.00126 1.14282L7.98268 -1.14282ZM1.54843 1.55505C-0.158954 3.26422 -1.12561 5.57638 -1.14283 7.99222L1.14283 8.00851C1.15577 6.19279 1.8823 4.45501 3.16552 3.17044L1.54843 1.55505ZM-1.14283 8.00882C-1.12493 10.4259 -0.156797 12.7389 1.5524 14.448L3.16861 12.8318C1.88395 11.5472 1.15627 9.80866 1.14283 7.99191L-1.14283 8.00882ZM1.5524 14.448C3.26161 16.1572 5.57462 17.1252 7.99164 17.1428L8.00836 14.8572C6.19173 14.8439 4.45327 14.1164 3.16861 12.8318L1.5524 14.448ZM7.99584 13.5246C7.27073 13.5272 6.55228 13.3863 5.88194 13.1098L5.01041 15.2228C5.95976 15.6144 6.97725 15.814 8.00416 15.8103L7.99584 13.5246ZM5.88194 13.1098C5.2116 12.8333 4.60264 12.4268 4.09021 11.9137L2.47296 13.529C3.19866 14.2556 4.06106 14.8313 5.01041 15.2228L5.88194 13.1098ZM4.09021 11.9137C3.57778 11.4006 3.17203 10.7912 2.89636 10.1205L0.782244 10.9894C1.17264 11.9392 1.74726 12.8023 2.47296 13.529L4.09021 11.9137ZM2.89636 10.1205C2.62069 9.44974 2.48057 8.73106 2.48409 8.00591L0.198399 7.99482C0.19342 9.02176 0.391852 10.0395 0.782244 10.9894L2.89636 10.1205ZM2.48408 7.99445C2.48033 7.26983 2.62006 6.55165 2.89521 5.8813L0.78069 5.01338C0.390987 5.96281 0.193088 6.97999 0.198401 8.00628L2.48408 7.99445ZM2.89521 5.8813C3.17036 5.21096 3.57548 4.60173 4.08722 4.08873L2.46899 2.47447C1.74419 3.20106 1.17039 4.06395 0.78069 5.01338L2.89521 5.8813ZM4.08722 4.08873C4.59896 3.57573 5.20718 3.16913 5.87681 2.89235L5.00372 0.779963C4.05526 1.17198 3.19379 1.74789 2.46899 2.47447L4.08722 4.08873ZM5.87681 2.89235C6.54645 2.61558 7.26424 2.47412 7.98881 2.47613L7.99513 0.19042C6.96886 0.187582 5.95218 0.387947 5.00372 0.779963L5.87681 2.89235ZM7.99485 2.47613C8.72089 2.47429 9.44014 2.61584 10.1114 2.89265L10.9828 0.779575C10.0334 0.388043 9.01604 0.187828 7.98909 0.190419L7.99485 2.47613ZM10.1114 2.89265C10.7826 3.16946 11.3925 3.57608 11.9062 4.08919L13.5215 2.47201C12.7949 1.74625 11.9322 1.17111 10.9828 0.779575L10.1114 2.89265ZM11.9062 4.08919C12.4199 4.60229 12.8273 5.21179 13.1049 5.88271L15.2169 5.0088C14.8243 4.05985 14.2481 3.19776 13.5215 2.47201L11.9062 4.08919ZM13.1049 5.88271C13.3825 6.55363 13.5249 7.27277 13.5239 7.99886L15.8096 8.00187C15.811 6.97489 15.6096 5.95775 15.2169 5.0088L13.1049 5.88271ZM13.5239 8.00566C13.5273 8.73136 13.3869 9.45055 13.1107 10.1217L15.2245 10.9914C15.6155 10.0411 15.8144 9.02271 15.8096 7.99507L13.5239 8.00566ZM13.1107 10.1217C12.8345 10.7928 12.4282 11.4025 11.915 11.9157L13.5313 13.5319C14.258 12.8052 14.8334 11.9418 15.2245 10.9914L13.1107 10.1217ZM11.915 11.9157C11.4019 12.4288 10.7922 12.8352 10.1211 13.1114L10.991 15.2251C11.9413 14.834 12.8047 14.2585 13.5313 13.5319L11.915 11.9157ZM10.1211 13.1114C9.45008 13.3875 8.73095 13.528 8.00529 13.5246L7.99471 15.8103C9.02232 15.8151 10.0407 15.6162 10.991 15.2251L10.1211 13.1114ZM7.91622 6.35104C8.20271 6.35374 8.48685 6.2993 8.75205 6.1909L7.88726 4.0751C7.90328 4.06855 7.92044 4.06526 7.93775 4.06543L7.91622 6.35104ZM8.75205 6.1909C9.01724 6.08251 9.25817 5.92234 9.46074 5.71976L7.84446 4.10355C7.85669 4.09132 7.87124 4.08165 7.88726 4.0751L8.75205 6.1909ZM9.46074 5.71976C9.66332 5.51717 9.82347 5.27624 9.93185 5.01105L7.81602 4.14633C7.82256 4.13033 7.83223 4.11579 7.84446 4.10355L9.46074 5.71976ZM9.93185 5.01105C10.0402 4.74586 10.0947 4.46172 10.092 4.17525L7.80636 4.19677C7.8062 4.17948 7.80948 4.16234 7.81602 4.14633L9.93185 5.01105ZM10.092 4.19839C10.0951 3.91173 10.041 3.62733 9.93292 3.3618L7.81586 4.22351C7.80941 4.20768 7.80619 4.19072 7.80638 4.17363L10.092 4.19839ZM9.93292 3.3618C9.82484 3.09628 9.66492 2.85496 9.4625 2.65195L7.84392 4.26585C7.83184 4.25374 7.8223 4.23935 7.81586 4.22351L9.93292 3.3618ZM9.4625 2.65195C9.26008 2.44895 9.01922 2.28833 8.75401 2.17948L7.8862 4.29405C7.87037 4.28755 7.856 4.27797 7.84392 4.26585L9.4625 2.65195ZM8.75401 2.17948C8.48879 2.07064 8.20454 2.01576 7.91787 2.01804L7.93611 4.30368C7.91899 4.30382 7.90203 4.30054 7.8862 4.29405L8.75401 2.17948ZM7.927 2.01801C7.64177 2.018 7.35934 2.07436 7.09595 2.18385L7.97331 4.29447C7.95863 4.30058 7.94288 4.30372 7.92697 4.30372L7.927 2.01801ZM7.09595 2.18385C6.83257 2.29334 6.59341 2.45379 6.39223 2.65598L8.01254 4.26816C8.00133 4.27942 7.988 4.28837 7.97331 4.29447L7.09595 2.18385ZM6.39223 2.65598C6.19105 2.85818 6.03181 3.09814 5.92365 3.36206L8.03865 4.22882C8.03262 4.24352 8.02375 4.25689 8.01254 4.26816L6.39223 2.65598ZM5.92365 3.36206C5.81549 3.62599 5.76054 3.90869 5.76197 4.19391L8.04765 4.18248C8.04773 4.19837 8.04467 4.21412 8.03865 4.22882L5.92365 3.36206ZM5.76196 4.18573C5.76134 4.47065 5.81708 4.75287 5.92596 5.01616L8.03818 4.14264C8.04448 4.15786 8.0477 4.17419 8.04766 4.19067L5.76196 4.18573ZM5.92596 5.01616C6.03485 5.27944 6.19473 5.5186 6.39641 5.71986L8.01096 4.10192C8.02263 4.11357 8.03188 4.12741 8.03818 4.14264L5.92596 5.01616ZM6.39641 5.71986C6.59809 5.92112 6.83759 6.0805 7.10111 6.18884L7.97017 4.07478C7.98542 4.08105 7.99929 4.09028 8.01096 4.10192L6.39641 5.71986ZM7.10111 6.18884C7.36464 6.29717 7.64699 6.35231 7.93191 6.35108L7.92206 4.06539C7.93856 4.06531 7.95491 4.06851 7.97017 4.07478L7.10111 6.18884ZM6.62736 13.457H9.81948V11.1713H6.62736V13.457ZM9.76605 13.4558C9.99508 13.4665 10.2239 13.4305 10.4386 13.3499L9.63568 11.2099C9.7114 11.1815 9.79211 11.1688 9.8729 11.1725L9.76605 13.4558ZM10.4386 13.3499C10.6532 13.2694 10.8493 13.146 11.0147 12.9873L9.43246 11.3378C9.49082 11.2818 9.55996 11.2383 9.63568 11.2099L10.4386 13.3499ZM11.0147 12.9873C11.1802 12.8286 11.3116 12.6379 11.401 12.4267L9.29622 11.5355C9.32774 11.461 9.37409 11.3938 9.43246 11.3378L11.0147 12.9873ZM11.401 12.4267C11.4904 12.2156 11.5359 11.9885 11.5347 11.7592L9.24905 11.7709C9.24864 11.69 9.26469 11.6099 9.29622 11.5355L11.401 12.4267ZM11.5347 11.7506C11.5318 11.5251 11.4841 11.3025 11.3943 11.0957L9.29756 12.0056C9.26658 11.9342 9.25012 11.8574 9.24913 11.7796L11.5347 11.7506ZM11.3943 11.0957C11.3046 10.8888 11.1746 10.7019 11.0118 10.5458L9.42957 12.1954C9.37341 12.1415 9.32854 12.077 9.29756 12.0056L11.3943 11.0957ZM11.0118 10.5458C10.8491 10.3898 10.657 10.2676 10.4466 10.1866L9.62468 12.3194C9.55206 12.2914 9.48574 12.2492 9.42957 12.1954L11.0118 10.5458ZM10.4466 10.1866C10.2362 10.1055 10.0118 10.0671 9.78639 10.0736L9.85257 12.3584C9.77476 12.3606 9.6973 12.3474 9.62468 12.3194L10.4466 10.1866ZM9.81948 10.0731H8.84695V12.3588H9.81948V10.0731ZM9.9898 11.216V7.2242H7.70409V11.216H9.9898ZM9.9898 7.2242C9.9898 6.83685 9.89389 6.37069 9.56915 5.98087C9.22 5.56174 8.72619 5.37528 8.2351 5.37528V7.661C8.19994 7.661 8.12998 7.65447 8.04364 7.61692C7.95464 7.5782 7.8745 7.51771 7.81298 7.44385C7.69414 7.3012 7.70409 7.18807 7.70409 7.2242H9.9898ZM8.2351 5.37528H6.75878V7.661H8.2351V5.37528ZM6.79187 5.37576C6.56649 5.36923 6.34206 5.40763 6.13168 5.4887L6.95358 7.62153C6.88096 7.64952 6.8035 7.66277 6.7257 7.66052L6.79187 5.37576ZM6.13168 5.4887C5.92129 5.56978 5.72914 5.69191 5.56642 5.848L7.14869 7.49752C7.09252 7.55139 7.0262 7.59355 6.95358 7.62153L6.13168 5.4887ZM5.56642 5.848C5.4037 6.00408 5.27368 6.19098 5.18392 6.3978L7.2807 7.30776C7.24973 7.37914 7.20485 7.44364 7.14869 7.49752L5.56642 5.848ZM5.18392 6.3978C5.09417 6.60463 5.04646 6.82725 5.0436 7.0527L7.32913 7.08174C7.32814 7.15955 7.31168 7.23638 7.2807 7.30776L5.18392 6.3978ZM5.04352 7.06139C5.04235 7.29066 5.08785 7.51776 5.17725 7.72889L7.28204 6.83763C7.31357 6.9121 7.32962 6.99219 7.32921 7.07305L5.04352 7.06139ZM5.17725 7.72889C5.26665 7.94001 5.39808 8.13074 5.56354 8.28945L7.1458 6.63993C7.20416 6.69591 7.25051 6.76317 7.28204 6.83763L5.17725 7.72889ZM5.56354 8.28945C5.729 8.44816 5.92502 8.57154 6.13969 8.65208L6.94258 6.51202C7.0183 6.54043 7.08744 6.58395 7.1458 6.63993L5.56354 8.28945ZM6.13969 8.65208C6.35436 8.73262 6.58317 8.76863 6.81221 8.75791L6.70536 6.47469C6.78615 6.47091 6.86686 6.48361 6.94258 6.51202L6.13969 8.65208ZM6.75878 8.75916H7.59989V6.47344H6.75878V8.75916ZM6.45703 7.6163V11.2167H8.74275V7.6163H6.45703ZM7.59989 10.0739H6.62736V12.3596H7.59989V10.0739ZM6.66045 10.0743C6.43507 10.0678 6.21064 10.1062 6.00025 10.1873L6.82216 12.3201C6.74954 12.3481 6.67207 12.3614 6.59427 12.3591L6.66045 10.0743ZM6.00025 10.1873C5.78986 10.2684 5.59771 10.3905 5.435 10.5466L7.01726 12.1961C6.96111 12.25 6.89478 12.2921 6.82216 12.3201L6.00025 10.1873ZM5.435 10.5466C5.27229 10.7027 5.14226 10.8895 5.0525 11.0964L7.14928 12.0063C7.1183 12.0777 7.07342 12.1422 7.01726 12.1961L5.435 10.5466ZM5.0525 11.0964C4.96274 11.3032 4.91504 11.5258 4.91218 11.7513L7.19771 11.7803C7.19672 11.8581 7.18025 11.935 7.14928 12.0063L5.0525 11.0964ZM4.91209 11.7615C4.91123 11.9906 4.95696 12.2174 5.04649 12.4283L7.15039 11.5349C7.18197 11.6093 7.19809 11.6893 7.19779 11.7701L4.91209 11.7615ZM5.04649 12.4283C5.13602 12.6391 5.26749 12.8296 5.43293 12.9881L7.0141 11.3375C7.07245 11.3934 7.11882 11.4606 7.15039 11.5349L5.04649 12.4283ZM5.43293 12.9881C5.59835 13.1465 5.79428 13.2697 6.0088 13.3501L6.81098 11.2098C6.88664 11.2382 6.95575 11.2816 7.0141 11.3375L5.43293 12.9881ZM6.0088 13.3501C6.22331 13.4305 6.45193 13.4665 6.68078 13.4558L6.57395 11.1725C6.65467 11.1688 6.73532 11.1814 6.81098 11.2098L6.0088 13.3501Z" fill="#8A88A2" mask="url(#path-1-inside-1)"/>
</svg>
