<svg width="334" height="290" viewBox="0 0 334 290" fill="none" xmlns="http://www.w3.org/2000/svg">
<rect x="0.333252" width="333.333" height="290" rx="8" fill="#1A1B20"/>
<g opacity="0.1">
<path d="M197.485 176.609C197.485 174.731 198.042 172.895 199.085 171.334C200.128 169.773 201.611 168.556 203.346 167.837C205.081 167.118 206.99 166.93 208.832 167.297C210.674 167.663 212.365 168.567 213.693 169.895C215.021 171.223 215.926 172.915 216.292 174.757C216.658 176.598 216.47 178.507 215.752 180.242C215.033 181.977 213.816 183.46 212.255 184.503C210.693 185.547 208.857 186.104 206.98 186.104C205.731 186.111 204.493 185.87 203.338 185.395C202.183 184.921 201.133 184.221 200.25 183.338C199.367 182.455 198.668 181.406 198.193 180.251C197.719 179.095 197.478 177.858 197.485 176.609Z" fill="#F1F0FF"/>
<path d="M126.475 99.2183H140.781V133.468H141.02C144.862 127.465 151.961 123.608 160.853 123.608C175.033 123.608 190.18 133.817 190.18 154.857C190.18 172.878 176.968 186.106 158.216 186.106C139.464 186.106 126.475 173.609 126.475 154.381V99.2183ZM175.746 154.857C175.746 144.408 168.647 136.946 158.2 136.946C147.754 136.946 140.781 144.392 140.781 154.857C140.781 165.321 147.752 172.767 158.2 172.767C168.649 172.767 175.746 165.321 175.746 154.857Z" fill="#F1F0FF"/>
</g>
</svg>
