<svg width="18" height="17" viewBox="0 0 18 17" fill="none" xmlns="http://www.w3.org/2000/svg">
<path d="M1.8 0H2.7V11.6316H1.8C1.32261 11.6316 0.864773 11.443 0.527208 11.1075C0.189642 10.7719 0 10.3167 0 9.84211V1.78947C0 1.31488 0.189642 0.859716 0.527208 0.524126C0.864773 0.188534 1.32261 0 1.8 0ZM16.2 11.6316H9.9L10.9098 14.6451C10.9999 14.914 11.0244 15.2004 10.9814 15.4806C10.9384 15.7608 10.829 16.0269 10.6623 16.2568C10.4956 16.4868 10.2763 16.6741 10.0225 16.8033C9.76868 16.9325 9.48764 16.9999 9.2025 17H9L4.5 12.1344V0H14.4L17.9208 7.69116L18 8.05263V9.84211C18 10.3167 17.8104 10.7719 17.4728 11.1075C17.1352 11.443 16.6774 11.6316 16.2 11.6316Z" fill="#F1F0FF"/>
</svg>
