<svg width="20" height="20" viewBox="0 0 20 20" fill="none" xmlns="http://www.w3.org/2000/svg">
<path d="M12.3438 10.0002C12.3438 11.2946 11.2945 12.3439 10.0001 12.3439C8.70566 12.3439 7.65632 11.2946 7.65632 10.0002C7.65632 8.70578 8.70566 7.65644 10.0001 7.65644C11.2945 7.65644 12.3438 8.70578 12.3438 10.0002Z" fill="#B3B1BF"/>
<path fill-rule="evenodd" clip-rule="evenodd" d="M10 3C3.63679 3 0 10 0 10C0 10 3.63679 17 10 17C16.3632 17 20 10 20 10C20 10 16.3632 3 10 3ZM13.7501 10.0001C13.7501 12.0712 12.0711 13.7501 10.0001 13.7501C7.929 13.7501 6.25007 12.0712 6.25007 10.0001C6.25007 7.92907 7.929 6.25014 10.0001 6.25014C12.0711 6.25014 13.7501 7.92907 13.7501 10.0001Z" fill="#B3B1BF"/>
</svg>
