<svg xmlns="http://www.w3.org/2000/svg" width="54" height="54" viewBox="0 0 54 54"><g transform="translate(-24 -192)"><rect width="54" height="54" rx="10" transform="translate(24 192)" fill="#6158f5"/><path d="M14.278.957l-3.51,7.117L2.914,9.219a1.721,1.721,0,0,0-.951,2.935L7.645,17.69,6.3,25.512a1.719,1.719,0,0,0,2.494,1.812l7.026-3.693,7.026,3.693a1.72,1.72,0,0,0,2.494-1.812L24,17.69l5.682-5.537a1.721,1.721,0,0,0-.951-2.935L20.874,8.074,17.363.957a1.722,1.722,0,0,0-3.085,0Z" transform="translate(34.988 205.24)" fill="#f1f0ff"/></g></svg>