<svg xmlns="http://www.w3.org/2000/svg" width="18.325" height="20.943" viewBox="0 0 18.325 20.943"><path d="M13.235,2.094a24.435,24.435,0,0,0-2.3,2.453A31.737,31.737,0,0,0,6.872,0C2.853,3.729,0,8.588,0,11.519a9.3,9.3,0,0,0,9.163,9.424,9.3,9.3,0,0,0,9.163-9.424c0-2.179-2.126-6.673-5.09-9.424Zm-.8,13.934a5.5,5.5,0,0,1-3.159.988,5.037,5.037,0,0,1-5.353-5.123c0-1.579.994-2.971,2.977-5.348.283.326,4.043,5.127,4.043,5.127l2.4-2.736c.169.28.324.554.461.817A4.879,4.879,0,0,1,12.439,16.028Z" fill="#ff9400"/></svg>