<svg xmlns="http://www.w3.org/2000/svg" width="21.914" height="21.914" viewBox="0 0 21.914 21.914"><path d="M0,3.2A11.031,11.031,0,0,0,10.957-7.756,11.048,11.048,0,0,0-.011-18.713,11.036,11.036,0,0,0-10.957-7.756,11.038,11.038,0,0,0,0,3.2ZM0,1.375A9.087,9.087,0,0,1-9.12-7.756,9.084,9.084,0,0,1-.011-16.887,9.119,9.119,0,0,1,9.131-7.756,9.089,9.089,0,0,1,0,1.375ZM-.1-11.58a1.387,1.387,0,0,0,1.4-1.4A1.389,1.389,0,0,0-.1-14.384a1.4,1.4,0,0,0-1.4,1.407A1.394,1.394,0,0,0-.1-11.58ZM-1.88-1.848H2.492A.749.749,0,0,0,3.276-2.6a.762.762,0,0,0-.784-.752H1.16V-8.819c0-.58-.29-.967-.838-.967H-1.7a.762.762,0,0,0-.784.752.749.749,0,0,0,.784.752H-.548v4.931H-1.88a.762.762,0,0,0-.784.752A.749.749,0,0,0-1.88-1.848Z" transform="translate(10.957 18.713)" fill="#5d6279"/></svg>