<svg xmlns="http://www.w3.org/2000/svg" width="20.718" height="19.854" viewBox="0 0 20.718 19.854"><defs><style>.a{fill:#5d6279;}</style></defs><g transform="translate(0 -1)"><path class="a" d="M2.863,9.782a.863.863,0,0,1-.61-1.474L8.214,2.347A.863.863,0,0,1,9.435,3.568L3.474,9.529a.861.861,0,0,1-.61.253Z" transform="translate(-0.273 -0.15)"/><path class="a" d="M10.669,5.316a.644.644,0,0,1-.458-.19L7.19,2.1A.647.647,0,0,1,7.647,1h3.021a.648.648,0,0,1,.647.647V4.669a.647.647,0,0,1-.647.647Z" transform="translate(-0.957)"/><path class="a" d="M6.179,15.079v4.964H1V15.079A1.079,1.079,0,0,1,2.079,14H5.1A1.079,1.079,0,0,1,6.179,15.079Z" transform="translate(-0.137 -1.778)"/><path class="a" d="M14.179,11.079V19.5H9V11.079A1.079,1.079,0,0,1,10.079,10H13.1A1.079,1.079,0,0,1,14.179,11.079Z" transform="translate(-1.231 -1.231)"/><path class="a" d="M22.179,7.079V18.949H17V7.079A1.079,1.079,0,0,1,18.079,6H21.1A1.079,1.079,0,0,1,22.179,7.079Z" transform="translate(-2.325 -0.684)"/><path class="a" d="M20.07,23.795H.647a.647.647,0,0,1,0-1.295H20.07a.647.647,0,0,1,0,1.295Z" transform="translate(0 -2.94)"/></g></svg>