<svg width="20" height="20" viewBox="0 0 20 20" fill="none" xmlns="http://www.w3.org/2000/svg">
<path d="M5.5 9L5 11H6L5.5 9Z" fill="#7A788D"/>
<path d="M18.0645 0H7.74194V3.26461H10.3226V4.57045H1.93548C0.83871 4.57045 0 5.41924 0 6.52921V13.7113C0 14.8213 0.83871 15.6701 1.93548 15.6701H2.58065V19L6.64516 15.6701H10.9677V11.0997H18.0645C19.1613 11.0997 20 10.2509 20 9.14089V1.95876C20 0.848797 19.1613 0 18.0645 0ZM6.96774 12.9931L6.64516 11.9485H4.64516L4.25806 12.9931H2.70968L4.83871 7.18213H6.3871L8.51613 12.9931H6.96774ZM16.7742 7.83505V9.14089C15.9355 9.14089 15.0323 8.87973 14.2581 8.48797C13.4839 8.87973 12.5806 9.0756 11.6774 9.14089L11.6129 7.83505C12.0645 7.83505 12.5161 7.76976 12.9677 7.63918C12.3871 7.05155 12 6.33333 11.8065 5.54983H13.1613C13.3548 6.13746 13.7419 6.5945 14.1935 6.98625C14.9032 6.39863 15.3548 5.54983 15.4194 4.57045H11.5484V3.26461H13.4839V1.95876H14.7742V3.26461H16.9032L16.9677 3.91753C17.0323 5.28866 16.5161 6.65979 15.5484 7.63918C16 7.76976 16.3871 7.83505 16.7742 7.83505Z" fill="#7A788D"/>
</svg>
