<svg width="18" height="17" viewBox="0 0 18 17" fill="none" xmlns="http://www.w3.org/2000/svg">
<path d="M1.8 17H2.7V5.36842H1.8C1.32261 5.36842 0.864773 5.55695 0.527208 5.89255C0.189642 6.22814 0 6.6833 0 7.15789V15.2105C0 15.6851 0.189642 16.1403 0.527208 16.4759C0.864773 16.8115 1.32261 17 1.8 17ZM16.2 5.36842H9.9L10.9098 2.35495C10.9999 2.086 11.0244 1.79962 10.9814 1.5194C10.9384 1.23918 10.829 0.973128 10.6623 0.743164C10.4956 0.513199 10.2763 0.325901 10.0225 0.196695C9.76868 0.0674894 9.48764 7.34693e-05 9.2025 0H9L4.5 4.86558V17H14.4L17.9208 9.30884L18 8.94737V7.15789C18 6.6833 17.8104 6.22814 17.4728 5.89255C17.1352 5.55695 16.6774 5.36842 16.2 5.36842Z" fill="#F1F0FF"/>
</svg>
