<svg width="20" height="20" viewBox="0 0 20 20" fill="none" xmlns="http://www.w3.org/2000/svg">
<path d="M11 1H2.11111C1 1 1 2.125 1 2.125V17.875C1 17.875 1 19 2.11111 19H11" stroke="#7A788D" stroke-width="1.5" stroke-linecap="round"/>
<path d="M7.5 10H18" stroke="#7A788D" stroke-width="1.5" stroke-linecap="round"/>
<path fill-rule="evenodd" clip-rule="evenodd" d="M14.4356 13.5061C14.1628 13.8178 14.1944 14.2917 14.5061 14.5644C14.8179 14.8372 15.2917 14.8056 15.5644 14.4939L19.0575 10.5018C19.107 10.447 19.147 10.3864 19.1775 10.3222C19.2261 10.2201 19.2501 10.1099 19.25 9.99999C19.2501 9.89007 19.2261 9.77984 19.1775 9.67782C19.147 9.6136 19.107 9.55299 19.0575 9.4982L15.5644 5.50611C15.2917 5.19438 14.8179 5.1628 14.5061 5.43556C14.1944 5.70832 14.1628 6.18214 14.4356 6.49387L17.5034 9.99999L14.4356 13.5061Z" fill="#7A788D"/>
</svg>
