<svg xmlns="http://www.w3.org/2000/svg" width="235.286" height="32.613" viewBox="0 0 235.286 32.613"><g transform="translate(0.2)"><path d="M138.2,22.163a3.538,3.538,0,0,1,3.563-3.563,3.563,3.563,0,1,1,0,7.126A3.538,3.538,0,0,1,138.2,22.163Z" transform="translate(51.251 6.888)" fill="#6db78b"/><path d="M-.2.137H5.144V12.881h.137a8.59,8.59,0,0,1,7.4-3.7c5.344,0,10.963,3.837,10.963,11.648,0,6.715-4.933,11.648-11.922,11.648S-.2,27.817-.2,20.555V.137ZM18.162,20.829c0-3.974-2.6-6.715-6.578-6.715s-6.578,2.741-6.578,6.715,2.6,6.715,6.578,6.715S18.162,24.8,18.162,20.829ZM44.2,18.088a6.405,6.405,0,0,0-6.166-3.974c-3.974,0-6.577,2.741-6.577,6.715s2.6,6.715,6.577,6.715A6.343,6.343,0,0,0,44.2,23.569h5.344c-1.1,5.207-5.481,8.907-11.511,8.907-6.989,0-11.922-4.933-11.922-11.648S31.043,9.181,38.032,9.181c6.029,0,10.414,3.7,11.511,8.907H44.2Zm28.64-8.359V22.336c0,3.563,1.918,5.07,4.522,5.07s4.522-1.507,4.522-5.07V9.729h5.344V22.336c0,6.989-4.111,10.14-9.318,10.14A8.685,8.685,0,0,1,70.234,28.5H70.1a8.661,8.661,0,0,1-7.674,3.974c-5.207,0-9.318-3.152-9.318-10.14V9.729h5.344V22.336c0,3.7,1.918,5.07,4.522,5.07s4.385-1.507,4.385-5.07V9.729Zm41.658,22.2h-4.933V27.817h-.137c-1.233,2.878-4.111,4.659-7.811,4.659-5.344,0-10.963-3.837-10.963-11.648,0-6.715,4.933-11.648,11.922-11.648S114.5,13.84,114.5,21.1Zm-5.344-11.1c0-3.974-2.6-6.715-6.578-6.715S96,16.855,96,20.829s2.6,6.715,6.577,6.715S109.151,24.8,109.151,20.829Zm10.414,11.1V.137h5.344V32.065h-5.344Zm11.374,0V.137h5.344V32.065h-5.344Zm15.21-9.181h0a6.112,6.112,0,0,0,6.3,4.933c2.33,0,4.111-.685,5.207-2.055h5.755c-1.644,4.248-5.755,6.989-10.962,6.989-6.989,0-11.922-4.933-11.922-11.648s4.933-11.648,11.922-11.648,11.922,4.933,11.922,11.648v1.918H146.149Zm.137-4.385h0l12.47.137v-.137a6.1,6.1,0,0,0-6.166-4.385C149.3,14.114,147.109,15.759,146.286,18.362Zm39.739,5.07c0,6.166-3.7,9.181-9.044,9.181s-9.044-3.015-9.044-9.181V2.33h5.344v7.4h11.511v4.8H173.282V23.3c0,3.015,1.507,4.111,3.7,4.111s3.7-1.1,3.7-4.111v-.548h5.344v.685Zm14.662-19.87a3.563,3.563,0,0,1,7.126,0,3.563,3.563,0,0,1-7.126,0Zm.959,28.365V9.729h5.344v22.2h-5.344Zm21.514.685c-6.989,0-11.922-4.933-11.922-11.648s4.933-11.648,11.922-11.648,11.922,4.933,11.922,11.648C235.22,27.68,230.287,32.613,223.161,32.613Zm6.578-11.785c0-3.974-2.6-6.715-6.578-6.715s-6.577,2.741-6.577,6.715,2.6,6.715,6.577,6.715S229.739,24.8,229.739,20.829Z" transform="translate(0)" fill="#fff"/></g></svg>