<svg xmlns="http://www.w3.org/2000/svg" xmlns:xlink="http://www.w3.org/1999/xlink" width="54" height="54" viewBox="0 0 54 54"><defs><clipPath id="a"><path d="M322.563-123.335h5.8V-154.25h-5.8Z" transform="translate(-322.563 154.25)" fill="none"/></clipPath><clipPath id="b"><path d="M312.25-123.335h5.8V-154.25h-5.8Z" transform="translate(-312.25 154.25)" fill="none"/></clipPath><clipPath id="c"><path d="M329.64-123.335h-5.8L312.25-154.25h5.8Z" transform="translate(-312.25 154.25)" fill="none"/></clipPath><clipPath id="d"><path d="M304-119.9h37.1V-157H304Z" transform="translate(-304 157)" fill="none"/></clipPath></defs><g transform="translate(-24 -192)"><rect width="54" height="54" rx="10" transform="translate(24 192)" fill="#242631"/><g transform="translate(820.79 -402.707)"><g transform="translate(-767.157 606.75)" clip-path="url(#a)"><path d="M317.563-159.25H334.6v42.156H317.563Z" transform="translate(-323.183 153.629)" fill="#d32e2e"/></g><g transform="translate(-778.75 606.75)" clip-path="url(#b)"><path d="M307.25-159.25h17.038v42.156H307.25Z" transform="translate(-312.871 153.629)" fill="#d32e2e"/></g><g transform="translate(-778.75 606.75)" clip-path="url(#c)"><g transform="translate(-9.274 -3.091)" clip-path="url(#d)"><path d="M307.25-159.25h28.631v42.156H307.25Z" transform="translate(-303.596 156.721)" fill="#f34335"/></g></g></g></g></svg>