<svg xmlns="http://www.w3.org/2000/svg" width="38" height="38" viewBox="0 0 38 38"><g transform="translate(-24 -212)"><circle cx="19" cy="19" r="19" transform="translate(24 212)" fill="#1a1b20"/><g transform="translate(-118.955 68.1)"><path d="M600.3,581.364a2.164,2.164,0,1,1,2.164,2.164A2.151,2.151,0,0,1,600.3,581.364Z" transform="translate(-431.018 -412.128)" fill="#6db78b"/><path d="M153.1,151.6h3.26v7.8h.054a5.2,5.2,0,0,1,4.519-2.247c3.231,0,6.683,2.327,6.683,7.121a6.949,6.949,0,0,1-7.284,7.121,6.844,6.844,0,0,1-7.233-7.23Zm11.228,12.679a3.985,3.985,0,1,0-4,4.082A3.863,3.863,0,0,0,164.328,164.279Z" transform="translate(0)" fill="#f1f0ff"/></g></g></svg>