<svg xmlns="http://www.w3.org/2000/svg" width="20.94" height="20.94" viewBox="0 0 20.94 20.94"><path d="M20.94,9.423H16.574l3.392-3.4L18.485,4.549,13.611,9.423H11.517V7.329l4.874-4.874L14.914.974l-3.4,3.392V0H9.423V4.366L6.025.974,4.549,2.455,9.423,7.329V9.423H7.329L2.455,4.549.974,6.025l3.392,3.4H0v2.094H4.366l-3.392,3.4,1.482,1.476,4.874-4.874H9.423v2.094L4.549,18.485l1.476,1.482,3.4-3.392V20.94h2.094V16.574l3.4,3.392,1.476-1.482-4.874-4.874V11.517h2.094l4.874,4.874,1.482-1.476-3.392-3.4H20.94Z" fill="#0084f5"/></svg>