<svg xmlns="http://www.w3.org/2000/svg" width="84.773" height="27.257" viewBox="0 0 84.773 27.257"><g transform="translate(-925 -241.872)"><path d="M2520.7,252.423a1,1,0,0,1-.724-.31l-7.863-8.248-7.471,4.229a1,1,0,0,1-.493.13h-6.876a1,1,0,0,1-.713-.3l-5.159-5.241h-6a1,1,0,0,1-.806-.408l-3.889-5.293-8.673,7.337a1,1,0,0,1-1.536-.308l-8.894-17.389a1,1,0,0,1,1.781-.911l8.32,16.267,8.528-7.214a1,1,0,0,1,1.452.171l4.224,5.748h5.917a1,1,0,0,1,.713.3l5.159,5.241h6.194l7.92-4.483a1,1,0,0,1,1.217.18l8.4,8.813a1,1,0,0,1-.724,1.69Z" transform="translate(-1536.491 16.705)" fill="#d53f4a"/><path d="M871.77,302.676l-4.392,4.392h8.607Z" transform="translate(1877.151 560.744) rotate(180)" fill="#d53f4a"/></g></svg>