<svg xmlns="http://www.w3.org/2000/svg" width="84.773" height="27.257" viewBox="0 0 84.773 27.257"><g transform="translate(-925 -241.872)"><path d="M2462.49,252.423a1,1,0,0,1-.89-1.456l8.894-17.389a1,1,0,0,1,1.536-.308l8.673,7.337,3.889-5.293a1,1,0,0,1,.806-.408h6l5.159-5.241a1,1,0,0,1,.713-.3h6.876a1,1,0,0,1,.493.13l7.471,4.229,7.863-8.248a1,1,0,0,1,1.448,1.38l-8.4,8.813a1,1,0,0,1-1.217.18l-7.92-4.483h-6.194l-5.159,5.241a1,1,0,0,1-.713.3h-5.917l-4.224,5.748a1,1,0,0,1-1.452.171l-8.528-7.214-8.32,16.267A1,1,0,0,1,2462.49,252.423Z" transform="translate(-1536.491 16.705)" fill="#4ebe96"/><path d="M871.77,302.676l-4.392,4.392h8.607Z" transform="translate(133.787 -49)" fill="#4ebe96"/></g></svg>